<?xml version="1.0" encoding="utf-8"?>
<!-- Generator: Adobe Illustrator 26.3.1, SVG Export Plug-In . SVG Version: 6.00 Build 0)  -->
<svg version="1.1" id="Layer_1" xmlns="http://www.w3.org/2000/svg" xmlns:xlink="http://www.w3.org/1999/xlink" x="0px" y="0px"
	 viewBox="0 0 480 720" style="enable-background:new 0 0 480 720;" xml:space="preserve">
<style type="text/css">
	.st0{fill:#F38B26;}
	.st1{fill:#FFFFFF;}
</style>
<rect x="0.9" y="0" class="st0" width="480" height="719.7"/>
<g>
	<path class="st1" d="M81.4,378.3c-1.4,0-2.8-0.3-4.1-0.8c-1.1-0.5-2.1-1.3-2.8-2.3c-0.7-1-1-2.2-1-3.4c-0.1-1.9,0.8-3.7,2.3-4.8
		c1.8-1.3,4-1.9,6.2-1.8c2.2,0,4.3,0.5,6.3,1.5v-2.8c0.1-1.4-0.4-2.9-1.5-3.9c-1.2-0.9-2.7-1.4-4.2-1.3c-1.1,0-2.1,0.2-3.2,0.5
		c-1.2,0.4-2.4,0.9-3.5,1.5l-1.2-2.4c1.4-0.7,2.8-1.2,4.3-1.6c1.3-0.3,2.6-0.5,3.9-0.5c2.2-0.1,4.5,0.5,6.2,1.9
		c1.5,1.4,2.3,3.4,2.2,5.4v14.4h-3v-2c-0.9,0.8-2,1.4-3.2,1.9C83.9,378.1,82.7,378.3,81.4,378.3z M76.5,371.8c0,1.2,0.5,2.3,1.5,2.9
		c1.1,0.8,2.5,1.2,3.9,1.1c1.2,0,2.4-0.2,3.5-0.6s2.1-1,2.9-1.9v-4c-0.9-0.6-1.8-1-2.8-1.3c-1.1-0.3-2.2-0.4-3.4-0.4
		c-1.4-0.1-2.9,0.3-4.1,1.1C77.1,369.5,76.5,370.6,76.5,371.8z"/>
	<path class="st1" d="M102.6,377.9v-21.4h3.2v3c0.6-1,1.5-1.9,2.5-2.6c1.1-0.6,2.3-0.9,3.5-0.9c0.7,0,1.4,0.1,2,0.3v2.9
		c-0.4-0.1-0.7-0.2-1.1-0.3s-0.7-0.1-1.1-0.1c-1.2,0-2.5,0.4-3.4,1.1c-1.1,0.9-1.9,2-2.3,3.3v14.6L102.6,377.9z"/>
	<path class="st1" d="M129.1,378.3c-1.4,0-2.8-0.3-4.1-0.8c-1.1-0.5-2.1-1.3-2.8-2.3c-1.7-2.7-1.1-6.2,1.3-8.1
		c1.8-1.3,4-1.9,6.2-1.8c2.2,0,4.3,0.5,6.3,1.5V364c0.1-1.4-0.4-2.9-1.5-3.9c-1.2-0.9-2.7-1.4-4.2-1.3c-1.1,0-2.1,0.2-3.2,0.5
		c-1.2,0.4-2.4,0.9-3.5,1.5l-1.2-2.4c1.4-0.7,2.8-1.2,4.3-1.6c1.3-0.3,2.6-0.5,3.9-0.5c2.3-0.1,4.5,0.5,6.3,1.9
		c1.5,1.4,2.3,3.4,2.2,5.5v14.4H136V376c-0.9,0.8-2,1.4-3.2,1.9C131.6,378.1,130.3,378.3,129.1,378.3z M124.2,371.8
		c0,1.2,0.5,2.3,1.5,2.9c1.1,0.8,2.5,1.2,3.9,1.1c1.2,0,2.4-0.2,3.5-0.6s2.1-1,2.9-1.9v-4c-0.9-0.6-1.8-1-2.8-1.3
		c-1.1-0.3-2.2-0.4-3.4-0.4c-1.4-0.1-2.9,0.3-4.1,1.1C124.8,369.5,124.2,370.6,124.2,371.8z"/>
	<path class="st1" d="M160.2,378.3c-1.9,0-3.8-0.5-5.5-1.5c-1.6-1-3-2.3-3.9-4c-3.1-5.3-1.3-12.1,3.9-15.2c1.7-1,3.6-1.5,5.5-1.5
		c1.5,0,3.1,0.3,4.5,0.9c1.4,0.6,2.7,1.4,3.8,2.5l-2,2.3c-0.8-0.9-1.8-1.6-2.9-2.1c-1.1-0.5-2.2-0.7-3.4-0.7c-1.4,0-2.8,0.4-3.9,1.1
		c-1.2,0.7-2.1,1.7-2.8,2.9c-0.7,1.3-1.1,2.7-1,4.2c0,1.5,0.3,2.9,1,4.2c0.7,1.2,1.7,2.2,2.8,2.9c1.2,0.7,2.6,1.1,4,1.1
		c1.1,0,2.3-0.2,3.3-0.7c1.1-0.5,2.1-1.2,2.9-2l2,2.1c-1.1,1.1-2.4,1.9-3.8,2.5C163.3,378,161.8,378.3,160.2,378.3z"/>
	<path class="st1" d="M178.2,377.9v-21.4h3.2v21.4H178.2z"/>
	<path class="st1" d="M192.7,377.9v-21.4h3.2v2.5c1.7-2,4.2-3,6.7-2.9c1.5,0,3,0.3,4.3,1.1c1.2,0.7,2.3,1.7,2.9,2.9
		c0.7,1.3,1.1,2.9,1.1,4.4V378h-3.1v-12.9c0.1-1.7-0.5-3.3-1.6-4.5c-1.2-1.1-2.8-1.7-4.4-1.6c-1.2,0-2.4,0.3-3.4,0.8
		c-1,0.6-1.9,1.4-2.5,2.4v15.7H192.7z"/>
	<path class="st1" d="M237.3,377.9v-29.8l3.2-0.7v11.5c1.9-1.8,4.3-2.7,6.9-2.6c1.9,0,3.8,0.5,5.5,1.5c3.3,2,5.4,5.6,5.3,9.5
		c0.1,3.9-1.9,7.6-5.3,9.6c-1.7,1-3.6,1.5-5.5,1.5c-2.5,0-4.9-0.9-6.9-2.5v2.1L237.3,377.9z M247,375.5c1.4,0,2.8-0.4,4.1-1.1
		c1.2-0.7,2.2-1.7,2.8-2.9c0.7-1.3,1.1-2.7,1-4.2c0-1.5-0.3-2.9-1-4.2c-0.7-1.2-1.7-2.2-2.8-2.9c-1.2-0.7-2.6-1.1-4.1-1.1
		c-1.3,0-2.6,0.3-3.7,0.8c-1.1,0.5-2.1,1.2-2.8,2.2v10.6c0.8,0.9,1.8,1.7,2.9,2.2C244.5,375.3,245.8,375.5,247,375.5L247,375.5z"/>
	<path class="st1" d="M276.6,378.4c-1.5,0-3-0.3-4.3-1.1c-1.2-0.7-2.2-1.7-2.9-2.9c-0.7-1.3-1.1-2.9-1-4.4v-13.5h3.1v12.9
		c-0.1,1.7,0.5,3.3,1.6,4.5c1.2,1.1,2.8,1.7,4.4,1.7c1.2,0,2.4-0.3,3.4-0.9s1.9-1.4,2.5-2.5v-15.6h3.2V378h-3.2v-2.6
		C281.7,377.4,279.2,378.5,276.6,378.4z"/>
	<path class="st1" d="M297.8,377.9v-21.4h3.2v3c0.6-1,1.5-1.9,2.5-2.6c1.1-0.6,2.3-0.9,3.5-0.9c0.7,0,1.4,0.1,2,0.3v2.9
		c-0.4-0.1-0.7-0.2-1.1-0.3s-0.7-0.1-1.1-0.1c-1.2,0-2.4,0.4-3.4,1.1c-1.1,0.9-1.9,2-2.3,3.3v14.6L297.8,377.9z"/>
	<path class="st1" d="M324.3,378.3c-1.4,0-2.8-0.3-4.1-0.8c-1.1-0.5-2.1-1.3-2.8-2.3c-0.7-1-1-2.2-1-3.4c-0.1-1.9,0.8-3.7,2.3-4.8
		c1.8-1.3,4-1.9,6.2-1.8c2.2,0,4.3,0.5,6.3,1.5v-2.8c0.1-1.4-0.4-2.9-1.5-3.9c-1.2-0.9-2.7-1.4-4.2-1.3c-1.1,0-2.1,0.2-3.2,0.5
		c-1.2,0.4-2.4,0.9-3.5,1.5l-1.2-2.4c1.4-0.7,2.8-1.2,4.3-1.6c1.3-0.3,2.6-0.5,3.9-0.5c2.2-0.1,4.5,0.5,6.2,1.9
		c1.5,1.4,2.3,3.4,2.2,5.5V378h-3.1v-2.1c-0.9,0.8-2,1.4-3.2,1.9C326.8,378.1,325.5,378.3,324.3,378.3z M319.4,371.8
		c0,1.2,0.5,2.3,1.5,2.9c1.1,0.8,2.5,1.2,3.9,1.1c1.2,0,2.4-0.2,3.5-0.6s2.1-1,2.9-1.9v-4c-0.9-0.6-1.8-1-2.8-1.3
		c-1.1-0.3-2.2-0.4-3.4-0.4c-1.4-0.1-2.9,0.3-4.1,1.1C319.9,369.5,319.4,370.6,319.4,371.8z"/>
	<path class="st1" d="M355.3,378.3c-1.9,0-3.8-0.5-5.4-1.5s-2.9-2.3-3.9-4s-1.5-3.6-1.5-5.6s0.5-3.9,1.5-5.6c0.9-1.6,2.3-3,3.9-3.9
		c1.7-1,3.6-1.5,5.5-1.5c1.2,0,2.5,0.2,3.7,0.6c1.2,0.4,2.3,1,3.2,1.8V348l3.2-0.7v30.6h-3.1v-2.3
		C360.3,377.4,357.8,378.3,355.3,378.3z M355.6,375.5c1.3,0,2.6-0.3,3.7-0.8s2.1-1.2,2.8-2.2v-10.6c-0.8-0.9-1.7-1.7-2.8-2.2
		c-1.2-0.5-2.4-0.8-3.7-0.8c-2.9,0-5.5,1.5-6.9,4c-0.7,1.3-1.1,2.7-1,4.2c0,1.5,0.3,2.9,1,4.2c0.7,1.2,1.7,2.2,2.9,2.9
		C352.8,375.1,354.2,375.5,355.6,375.5L355.6,375.5z"/>
	<path class="st1" d="M383.4,378.3c-1.4,0-2.8-0.3-4.1-0.8c-1.1-0.5-2.1-1.3-2.8-2.3c-0.7-1-1-2.2-1-3.4c-0.1-1.9,0.8-3.7,2.3-4.8
		c1.8-1.3,4-1.9,6.2-1.8c2.2,0,4.3,0.5,6.3,1.5v-2.8c0.1-1.4-0.4-2.9-1.5-3.9c-1.2-0.9-2.7-1.4-4.2-1.3c-1.1,0-2.1,0.2-3.2,0.5
		c-1.2,0.4-2.4,0.9-3.5,1.5l-1.2-2.4c1.4-0.7,2.8-1.2,4.3-1.6c1.3-0.3,2.6-0.5,3.9-0.5c2.2-0.1,4.4,0.5,6.2,1.9
		c1.5,1.4,2.3,3.4,2.2,5.5V378h-3.1v-2c-0.9,0.8-2,1.4-3.2,1.9C385.9,378.1,384.7,378.3,383.4,378.3z M378.6,371.8
		c0,1.2,0.5,2.3,1.5,2.9c1.1,0.8,2.5,1.2,3.9,1.1c1.2,0,2.4-0.2,3.5-0.6s2-1,2.9-1.9v-4c-0.9-0.6-1.8-1-2.8-1.3
		c-1.1-0.3-2.2-0.4-3.4-0.4c-1.4-0.1-2.9,0.3-4.1,1.1C379.1,369.5,378.5,370.6,378.6,371.8z"/>
	<path class="st1" d="M406.2,378.2c-1.2,0.1-2.2-0.9-2.3-2.1s0.9-2.2,2.1-2.3c1.2-0.1,2.2,0.9,2.3,2.1c0,0.6-0.2,1.2-0.6,1.6
		S406.8,378.2,406.2,378.2z M404.9,369.6l-0.4-21.8h3.3l-0.4,21.8H404.9z"/>
	<path class="st1" d="M90,322h-9.7v-42.4H90v16.9h13.7v-16.9h9.7V322h-9.7v-17H90V322z"/>
	<path class="st1" d="M130.7,294.8c3.2-0.1,6.3,1.1,8.6,3.3v-2.5h9.1v26.3h-9V319l0,0c-2.2,2.4-5.4,3.8-8.6,3.7
		c-7.7,0-13.2-6.2-13.2-13.9C117.6,301.1,123,294.8,130.7,294.8z M133.4,315c3.3,0.1,6-2.5,6.1-5.7c0-0.1,0-0.3,0-0.4
		c0-3.4-2.8-6.1-6.1-6.1s-6.1,2.8-6.1,6.1c-0.2,3.2,2.3,6,5.5,6.2C133,315,133.2,315,133.4,315z"/>
	<path class="st1" d="M172.4,322.7c-3.2,0.1-6.3-1.1-8.6-3.3v15.9h-9.1v-39.8h9v2.9h0.1c2.2-2.4,5.4-3.8,8.6-3.8
		c7.7,0,13.2,6.2,13.2,13.9C185.6,316.2,180.1,322.7,172.4,322.7z M169.6,302.6c-3.3-0.1-6,2.5-6.1,5.8c0,0.1,0,0.3,0,0.4
		c0,3.4,2.8,6.1,6.1,6.1c3.4,0,6.1-2.8,6.1-6.1c0.2-3.2-2.3-6-5.5-6.2C170.1,302.6,169.9,302.6,169.6,302.6z"/>
	<path class="st1" d="M207.5,322.7c-3.2,0.1-6.3-1.1-8.6-3.3v15.9h-9.1v-39.8h9v2.9h0.1c2.2-2.4,5.4-3.8,8.6-3.8
		c7.7,0,13.2,6.2,13.2,13.9C220.7,316.2,215.2,322.7,207.5,322.7z M204.8,302.6c-3.3-0.1-6,2.5-6.1,5.7c0,0.1,0,0.3,0,0.4
		c0,3.4,2.7,6.1,6.1,6.2c3.4,0,6.1-2.7,6.2-6.1l0,0c0.2-3.2-2.3-6-5.5-6.2C205.2,302.6,205,302.6,204.8,302.6z"/>
	<path class="st1" d="M255.4,295.6l-20.7,39.8h-10.5l9.1-17.6l-12.5-22.3h10.5l7.3,13.5l6.3-13.5h10.5V295.6z"/>
	<path class="st1" d="M292.9,298.1l-6.8,23.8h-10.8l-12.1-42.4H274l7.3,29.1h0.2l7.7-29.1h7.3l7.7,29.1h0.2l7.3-29.1h10.7
		l-12.1,42.4h-10.7L292.9,298.1z"/>
	<path class="st1" d="M332.4,294.8c3.2-0.1,6.3,1.1,8.6,3.3v-2.5h9.1v26.3h-9V319H341c-2.2,2.4-5.4,3.8-8.6,3.7
		c-7.7,0-13.2-6.2-13.2-13.9C319.3,301.1,324.7,294.8,332.4,294.8z M335.2,315c3.2,0.2,6-2.3,6.1-5.6c0-0.2,0-0.4,0-0.6
		c0-3.4-2.7-6.1-6.1-6.2c-3.4,0-6.1,2.7-6.2,6.1l0,0c-0.2,3.2,2.3,6,5.5,6.2C334.7,315,334.9,315,335.2,315z"/>
	<path class="st1" d="M386.6,295.6l-20.7,39.8h-10.5l9.1-17.6L352,295.5h10.5l7.3,13.5l6.3-13.5L386.6,295.6z"/>
	<path class="st1" d="M407.6,296.9l-2.9,6c-1.8-0.9-3.8-1.5-5.9-1.7c-2,0-2.8,0.4-2.8,1.6s1.9,1.8,4.1,2.5c3.5,1.1,8,3,8,8.4
		c0,7.8-7.1,9-12.5,9c-3.7,0.1-7.3-1.2-10.2-3.5l3.7-6.2c0,0,3.6,3,6.5,3c1.3,0,2.8-0.2,2.8-1.9c0-1.7-2.9-2.1-5.9-3.6
		c-2.7-1.5-5.3-3.2-5.3-7.2c0-5.4,4.6-8.5,11.5-8.5C401.8,294.8,404.8,295.5,407.6,296.9z"/>
</g>
</svg>
